<?xml version="1.0" encoding="utf-8"?>
<!-- StringGenerator: Adobe Illustrator 21.0.0, SVG Export Plug-In . SVG Version: 6.00 Build 0)  -->
<svg version="1.1" id="Layer_1" xmlns="http://www.w3.org/2000/svg" xmlns:xlink="http://www.w3.org/1999/xlink" x="0px" y="0px"
	 viewBox="0 0 250 97" enable-background="new 0 0 250 97" xml:space="preserve">
<g>

	<path fill="#ffffff" d="M44.9,55.8c-5,0-9.4,0.8-13.7,1.8c-2.5,0.6-4.9,1.3-7.3,2c-0.4,0.1-0.5,0.3-0.5,0.7
		c0.2,1.9,0.8,3.7,1.2,5.5c0.2,0.7,0.1,0.7-0.5,0.7c-1.1-0.2-1.8-0.9-2.3-1.8c-0.5-1.1-0.7-2.4-0.8-3.6c0-0.6-0.2-0.5-0.6-0.4
		c-1.4,0.5-2.8,0.9-4.1,1.4c-0.7,0.2-1.1,0-1.1-0.7c-0.1-0.9,0-1.8,0.2-2.7c0.2-0.7,0.5-1.1,1.2-1.3c1.4-0.5,2.8-0.8,4.2-1.1
		c0.6-0.1,0.8-0.3,0.9-0.9c0.9-6.4,3-12.4,5.3-18.4c3-7.7,6.5-15,11.1-21.9c1.5-2.3,3.1-4.5,5.2-6.3c1-0.9,2.1-1.6,3.5-1.6
		c2.1,0.1,4,1,5.6,2.4c1,0.9,1.1,2.1,0.8,3.3c-0.6,2.2-1.7,4.1-2.8,6c-3.5,5.9-7.7,11.5-12,16.8c-1.7,2.1-3.3,4.2-4.9,6.3
		c-0.5,0.7-1,1.3-1.7,1.8c-0.2,0.1-0.4,0.3-0.6,0.1c-0.2-0.2,0-0.4,0.1-0.5c1.5-2.2,3.1-4.2,4.7-6.3c3.9-5.1,7.7-10.2,10.9-15.7
		c1.4-2.4,2.7-4.8,3.3-7.4c0.2-0.8,0.3-1.5,0.2-2.3c-0.1-1.1-0.8-1.6-1.9-1.2c-1,0.4-1.6,1.1-2.3,1.9c-1.9,2.5-3.6,5.1-5.2,7.8
		c-5,8.1-9.5,16.5-13.2,25.3c-1.3,3-2.4,6.1-3.2,9.3c-0.2,0.7-0.2,0.7,0.5,0.6c6.8-1.4,13.7-2.3,20.6-2c2.5,0.1,5,0.4,7.4,1.2
		c1.3,0.5,2.5,1.1,3.3,2.2c0.9,1.3,1.3,2.7,0.6,4.2c-0.5,1-0.9,2.1-1.6,3c-0.4,0.5-0.9,0.9-1.6,1.1c-0.2,0-0.5,0.2-0.6-0.1
		c-0.1-0.3,0.1-0.4,0.3-0.5c0.9-1,1.6-2.1,2.1-3.3c0.5-1.3,0.2-2.4-0.9-3.3c-1.2-1-2.7-1.3-4.2-1.6C48.2,55.9,46.3,55.8,44.9,55.8z"
		/>
	<path fill="#ffffff" d="M86.5,31c3.2-0.1,6.3-0.2,9.5-0.2c0.2,0,0.3,0,0.5,0c0.2,0,0.4,0,0.4,0.2c0,0.2-0.2,0.2-0.3,0.3
		c-1.7,0.6-3.3,1.1-5,1.7c-3.2,1.1-6.4,2.2-9.7,3.1c-0.4,0.1-0.4,0.3-0.5,0.6c-3,9.4-5.6,18.9-9.4,27.9c-2,4.8-4.2,9.5-7.4,13.7
		c-2.3,3-4.9,5.7-8.4,7.3c-3.2,1.5-6.6,2-10,0.6c-3.5-1.4-5.9-3.9-6.5-7.8c-0.1-0.6-0.1-1.2-0.1-1.8c0-0.2,0-0.5,0.2-0.5
		c0.3-0.1,0.4,0.2,0.5,0.4c0.2,0.6,0.4,1.2,0.6,1.8c2.3,6.2,8.7,6.8,12.5,5c2.4-1.2,4.3-3,6-5c3.3-4.1,5.7-8.7,7.9-13.5
		c2.5-5.5,4.4-11.3,6.4-17c1.2-3.5,2.4-7.1,3.6-10.6c0.1-0.4,0.1-0.6-0.3-0.7c-1.7-0.6-3.1-1.5-3.7-3.4c-0.2-0.5-0.2-1.1-0.2-1.7
		c0-0.7,0.2-0.8,0.9-0.7c1.5,0.3,3,0.5,4.5,0.8c0.5,0.1,0.8-0.1,1.1-0.5c0.5-0.9,0.9-1.8,1.2-2.8c1.4-4.6,3-9.2,5.2-13.6
		c0.9-1.7,1.9-3.4,3.4-4.6c2.2-1.7,4.6-2.3,7.2-1.3c2.9,1.1,3.9,4.8,2.1,7.2c-0.6,0.8-1.4,1.1-2.4,1c-0.5-0.1-0.7-0.3-0.5-0.9
		c0.6-1.6,0.8-3.2,0.5-4.9c-0.2-1.1-0.9-1.5-2-1.1c-1.1,0.4-1.8,1.1-2.5,2c-2,2.5-3.5,5.4-4.6,8.4c-1.1,3-2.3,6-3.2,9.1
		c-0.4,1.2,0,1.6,1.2,1.6C85.6,31,86.1,31,86.5,31C86.5,31,86.5,31,86.5,31z"/>
	<path fill="#ffffff" d="M228.8,38.4c-4.1,0-8.2,0-12.4,0c-0.4,0-0.6,0.1-0.6,0.6c0.2,2.9,0.7,5.8,1.9,8.5c2.4,5.4,7.1,7.5,12.5,7
		c3.2-0.3,5.9-1.7,8.4-3.6c0.4-0.3,0.6-0.3,0.9,0.1c1,1.3,1,1.3-0.3,2.3c-4.9,3.6-10.3,4.5-16.1,2.5c-4.1-1.4-6.7-4.6-8.2-8.6
		c-1.5-3.9-1.8-7.9-1.5-12c0.2-3.5,0.9-6.8,2.5-9.9c1.9-3.8,4.8-6.5,9-7.3c5-1,9.6-0.1,13.1,4c2,2.3,3,5.1,3.5,8.1
		c0.5,2.6,0.6,5.2,0.4,7.8c0,0.4-0.1,0.6-0.6,0.5C237.1,38.4,233,38.4,228.8,38.4z M227.6,36.3c3.8,0,7.5,0,11.3,0
		c0.2,0,0.6,0.2,0.6-0.3c0-2.6-0.1-5.2-0.8-7.8c-0.7-2.5-1.9-4.8-4.1-6.4c-5.3-3.8-12.9-2-16.2,3.8c-1.8,3.1-2.3,6.5-2.5,10.1
		c0,0.5,0.1,0.6,0.6,0.6C220.2,36.3,223.9,36.3,227.6,36.3z"/>
	<path fill="#ffffff" d="M126.4,56.7c-5.3,0-10.2-2-14.4-5.7c-0.3-0.3-0.2-0.4,0-0.6c0.3-0.3,0.7-0.7,1-1c0.3-0.4,0.5-0.3,0.8,0
		c2.2,2,4.6,3.6,7.4,4.3c4,1.1,7.9,1.2,11.8-0.4c4.3-1.8,6.5-5.1,6.8-9.7c0.1-1.5,0-2.9-0.4-4.3c-0.6-2.4-2.2-4.2-4.3-5.5
		c-2.3-1.4-4.9-2.3-7.5-3.1c-2.9-0.9-5.7-1.9-8.3-3.4c-2.6-1.5-4.6-3.5-5.3-6.6c-1.5-6.6,1.9-12.5,8.6-14.1
		c6.6-1.7,12.7-0.4,17.8,4.3c0.3,0.3,0.3,0.4,0,0.7c-0.4,0.4-0.8,1.2-1.2,1.2c-0.4,0-0.9-0.7-1.4-1c-4.9-3.8-10.4-4.6-16.1-2.3
		c-5.9,2.3-6.3,8.3-4.7,12.1c0.7,1.6,1.9,2.8,3.4,3.7c2.1,1.3,4.4,2.1,6.7,2.9c2.7,0.8,5.3,1.6,7.8,2.9c1.1,0.5,2.1,1.1,3,1.9
		c2.6,2,3.9,4.7,4.2,7.9c0.4,3.5-0.1,6.8-2.1,9.8c-2.2,3.3-5.5,5.1-9.3,5.9C129.4,56.6,128.1,56.8,126.4,56.7z"/>
	<path fill="#ffffff" d="M94.3,59.8c-1,0-2-0.1-3-0.4c-2.6-0.8-4.2-2.7-4.5-5.5c-0.3-2.5,0.2-4.9,1.2-7.3c1.9-4.7,4.6-8.8,8.1-12.4
		c1.5-1.5,3.3-2.8,5.4-3.3c1.6-0.4,3.2-0.3,4.6,0.6c2.5,1.5,3.3,3.9,2.1,6.6c-0.9,1.9-2.4,3.4-4,4.6c-2.1,1.6-4.3,2.8-7,3.2
		C96.9,46,96.5,46,96,46c-0.3,0-0.6,0-0.7-0.3c0-0.3,0.2-0.5,0.5-0.6c1.1-0.3,2.1-0.7,3.1-1.2c2-0.9,3.8-2.1,5.2-3.8
		c1.4-1.7,2-3.6,2-5.8c0-1-0.4-1.3-1.4-0.9c-1.2,0.5-2.3,1.3-3.3,2.2c-4.6,3.9-8,8.7-10.2,14.4c-0.6,1.5-0.8,3-0.7,4.6
		c0.1,2.4,1.5,3.5,3.9,3c2.1-0.4,3.8-1.4,5.4-2.7c1.9-1.5,3.5-3.3,5.2-5c1.6-1.7,3.2-3.4,4.8-5.1c0.2-0.2,0.4-0.5,0.8-0.3
		c0.3,0.2,0.2,0.6,0.1,0.9c0,0.1-0.1,0.3-0.2,0.4c-2.4,3.5-5,7-8.2,9.9c-1.4,1.3-2.8,2.4-4.5,3.2C96.8,59.5,95.6,59.9,94.3,59.8z"/>
	<path fill="#ffffff" d="M180.1,55.9c-0.9,0.3-1.1-0.2-1.3-0.8c-4.3-12.1-8.6-24.2-12.9-36.3c0-0.1-0.1-0.3-0.2-0.5
		c0.9,0,1.7,0,2.5,0c0.4,0,0.3,0.3,0.4,0.5c1.5,4.4,3.1,8.9,4.6,13.3c2.4,7.1,4.9,14.1,7.3,21.2c0.1,0.2,0.1,0.4,0.3,0.6
		c1.1-3.1,2.1-6.2,3.2-9.4c2.9-8.6,5.8-17.1,8.6-25.7c0.1-0.4,0.3-0.6,0.8-0.6c0.7,0,1.4,0,2.1,0c-0.8,2.2-1.5,4.4-2.3,6.6
		c-3.8,10.9-7.6,21.7-11.4,32.6c-0.4,1.2-0.9,2.3-1.4,3.4c-2,4.5-5.5,7.3-10.1,8.8c-0.1,0-0.2,0-0.2,0.1c-1.5,0.5-1.5,0.5-1.7-1.1
		c-0.1-0.4,0.1-0.5,0.4-0.5c0.7-0.2,1.5-0.5,2.2-0.8c3.3-1.2,5.6-3.4,7.1-6.5C178.8,59.3,179.4,57.7,180.1,55.9z"/>
	<path fill="#ffffff" d="M164.4,18.4c0,0.1,0,0.1,0,0.1c-0.1,0.7,0,1.5-0.4,1.9c-0.4,0.4-1.3,0.1-1.9,0.1c-2.5,0-4.9,0-7.4,0
		c-0.4,0-0.5,0.1-0.5,0.5c0,8.9,0,17.7,0,26.6c0,0.8,0.1,1.6,0.3,2.4c0.6,2.9,2.5,4.5,5.5,4.6c2.2,0.1,4.3-0.4,6.3-1.5
		c0.5-0.3,0.7-0.2,0.9,0.3c0.1,0.2,0.2,0.3,0.3,0.5c0.5,0.9,0.5,0.9-0.4,1.4c-2.7,1.4-5.5,1.9-8.5,1.5c-3.4-0.5-5.9-2.9-6.5-6.5
		c-0.2-1-0.3-2-0.3-3c0-8.6,0-17.2,0-25.8c0-0.8,0-0.8-0.9-0.8c-1.6,0-3.1,0-4.7,0c-0.4,0-0.7-0.1-0.6-0.6c0.1-0.5-0.2-1.2,0.1-1.4
		c0.3-0.3,1-0.1,1.5-0.1c1.3,0,2.7,0,4,0c0.5,0,0.6-0.1,0.6-0.6c0-2.8,0-5.5,0-8.3c0-0.4,0.1-0.6,0.5-0.6c0.5,0,1-0.1,1.5-0.1
		c0.4-0.1,0.5,0.1,0.5,0.5c0,2.8,0,5.7,0,8.5c0,0.6,0.2,0.7,0.7,0.7c3,0,5.9,0,8.9,0C164,18.4,164.2,18.4,164.4,18.4z"/>
	<path fill="#ffffff" d="M203.2,27c0,7.7,0,15.4,0,23.1c0,0.7,0,1.4,0.2,2c0.5,1.8,1.9,2.6,4,2.3c0.5-0.1,1.1-0.2,1.6-0.4
		c0.3-0.1,0.4-0.1,0.5,0.2c0.1,0.4,0.3,0.9,0.5,1.3c0.1,0.3,0.1,0.4-0.2,0.5c-1.8,0.7-3.6,0.9-5.4,0.3c-2.1-0.7-3.2-2.2-3.5-4.3
		c-0.1-0.6-0.1-1.2-0.1-1.9c0-15.6,0-31.2,0-46.7c0-0.6,0.2-0.7,0.7-0.7c0.4,0,0.8-0.1,1.2-0.2c0.6-0.2,0.6,0.1,0.6,0.5
		C203.2,11.1,203.2,19.1,203.2,27z"/>
	<path fill="#ffffff" d="M57.5,54.9c0.1-3.6,0.9-7.1,1.9-10.5c0.9-3.1,2.1-6.1,3.4-9c0.4-0.9,0.6-1.8,1.2-2.7c0.5-0.8,1.1-1.1,2-1.2
		c0.8,0,1.6,0,2.4,0.2c0.3,0.1,0.6,0.2,0.8,0.4c0.3,0.3,0.4,0.6,0.2,1c-3.3,6-5.6,12.5-7.4,19.2c-0.4,1.6-0.7,3.3-0.3,4.9
		c0.3,1.2,0.9,1.5,2,1c1.1-0.6,2-1.4,3-2.3c0.2-0.1,0.3-0.5,0.6-0.3c0.3,0.2,0.2,0.5,0,0.8c-0.2,0.5-0.6,0.8-1,1.1
		c-1.1,0.9-2.4,1.6-3.7,2.1c-2.7,1.1-4.6-0.1-5-2.9C57.5,56.2,57.5,55.5,57.5,54.9z"/>
	<path fill="#ffffff" d="M191.2,75.1c0.6,1.4,0.5,1.5-1,1.6c-0.5,0-1.1,0.1-1.6,0.1c0,0,0,0.1,0,0.1c1.6,0.8,2,2.5,1.6,4.2
		c-0.4,1.6-1.8,2.6-3.7,2.8c-0.5,0-1.1,0-1.6-0.1c-0.7-0.2-1.2,0.2-1.4,0.9c-0.2,0.6,0.1,1.2,0.7,1.4c0.5,0.2,0.9,0.2,1.4,0.2
		c1,0,2-0.1,3,0.1c1.5,0.4,2.5,1.4,2.6,2.8c0.1,1.6-0.6,2.7-2.2,3.3c-2,0.7-4,0.7-6,0.1c-1.3-0.4-2-1.3-2.1-2.7
		c0-0.4,0.1-0.4,0.4-0.4c0.5,0,0.9,0,0.9,0.7c0,0.8,0.6,1.2,1.3,1.4c1.6,0.4,3.2,0.4,4.7,0c0.8-0.2,1.4-0.8,1.5-1.7
		c0.1-1.2-0.4-2-1.6-2.3c-1-0.2-2-0.1-2.9-0.1c-0.5,0-1,0-1.5-0.2c-1.6-0.6-2.1-2.3-0.9-3.5c0.2-0.2,0.3-0.3,0.5-0.5
		c0,0,0-0.1-0.1-0.1c-1.9-1-2.1-2.9-1.7-4.5c0.4-1.7,2-2.8,3.9-2.8c1.3,0,2.5,0,3.8-0.2C190,75.6,190.6,75.4,191.2,75.1z M185.9,83
		c2,0,3.1-1.1,3-3c0-1.9-1.1-3-3-3c-1.9,0-3.1,1.1-3.1,3C182.9,81.9,184,83,185.9,83z"/>
	<path fill="#ffffff" d="M120.4,86.6c-1.2,1.6-2.7,2.2-4.6,1.8c-1.6-0.3-2.6-1.4-2.7-2.8c-0.2-1.8,0.4-3.2,1.9-4
		c0.9-0.4,1.8-0.6,2.7-0.6c0.4,0,0.9,0,1.3,0c1.2,0,1.2,0,1.2-1.2c0-1.9-0.8-2.6-2.7-2.6c-1,0-2,0.2-2.9,0.6
		c-0.4,0.1-0.5-0.1-0.5-0.3c0-0.2-0.4-0.5,0.1-0.7c1.4-0.5,2.8-0.8,4.3-0.6c2,0.3,3.1,1.4,3.1,3.5c0,2,0,3.9,0,5.9
		c0,0.8,0,1.6,0.9,2.1c0.3,0.2,0,0.5-0.1,0.8c-0.1,0.3-0.3,0.1-0.4,0.1C121.2,88.2,120.8,87.7,120.4,86.6z M120.3,83.8
		c0-0.5,0-1,0-1.4c0-0.2,0-0.3-0.3-0.3c-1.2,0-2.3-0.1-3.5,0.2c-1.7,0.5-2.4,1.8-1.9,3.5c0.4,1.3,1.7,1.9,3.3,1.5
		C119.5,86.9,120.3,85.8,120.3,83.8z"/>
	<path fill="#ffffff" d="M176.4,86.6c-1.2,1.6-2.7,2.2-4.6,1.8c-1.6-0.3-2.6-1.3-2.8-2.8c-0.2-1.8,0.4-3.2,1.9-4
		c0.9-0.4,1.8-0.6,2.7-0.6c0.5,0,1,0,1.4,0c1.1,0,1.1,0,1.1-1.1c0-0.1,0-0.2,0-0.4c-0.1-1.5-0.8-2.3-2.4-2.4
		c-1.1-0.1-2.2,0.2-3.2,0.6c-0.4,0.1-0.5-0.1-0.5-0.3c0-0.2-0.4-0.5,0.1-0.7c1.4-0.5,2.8-0.8,4.3-0.6c2,0.3,3.1,1.4,3.1,3.5
		c0,2,0,3.9,0,5.9c0,0.8,0,1.6,0.9,2.1c0.3,0.2,0,0.5-0.1,0.8c-0.1,0.3-0.3,0.1-0.4,0.1C177.2,88.2,176.8,87.7,176.4,86.6z
		 M176.3,83.7c0-0.5,0.3-1.3-0.1-1.6c-0.3-0.3-1.1-0.1-1.6-0.1c-0.3,0-0.5,0-0.8,0c-0.7,0.1-1.3,0.2-1.9,0.5c-1,0.5-1.4,1.5-1.3,2.8
		c0.1,1.1,0.7,1.8,1.7,2.1c1.2,0.3,2.3,0,3.3-0.9C176.3,85.6,176.4,84.7,176.3,83.7z"/>
	<path fill="#ffffff" d="M198.7,82.8c-1.2,0-2.4,0-3.6,0c-0.4,0-0.5,0.1-0.4,0.5c0.1,0.4,0.1,0.7,0.2,1.1c0.6,2.6,2.8,3.7,5.2,2.8
		c0.4-0.2,0.9-0.4,1.3-0.7c0.5-0.4,0.5,0.1,0.7,0.3c0.2,0.2,0.2,0.4-0.1,0.6c-1.7,1.2-3.5,1.6-5.4,0.9c-1.4-0.4-2.3-1.4-2.8-2.8
		c-0.8-2.2-0.8-4.4,0.1-6.6c1-2.3,3.3-3.4,5.7-2.6c1.9,0.6,2.7,2.1,3,3.9c0.1,0.7,0.1,1.4,0.1,2.2c0,0.4-0.1,0.5-0.5,0.5
		C201.1,82.7,199.9,82.8,198.7,82.8z M198.1,81.7c1,0,2,0,2.9,0c0.3,0,0.5-0.1,0.4-0.4c0-0.8-0.1-1.6-0.4-2.3
		c-0.5-1.1-1.3-1.8-2.5-1.9c-1.3-0.1-2.3,0.3-3,1.4c-0.5,0.9-0.7,1.8-0.8,2.8c-0.1,0.4,0.1,0.4,0.4,0.4
		C196.1,81.7,197.1,81.7,198.1,81.7z"/>
	<path fill="#ffffff" d="M155.7,82.8c-1.2,0-2.3,0-3.5,0c-0.5,0-0.6,0.1-0.5,0.6c0.1,0.3,0.1,0.7,0.2,1c0.6,2.6,2.8,3.8,5.3,2.8
		c0.4-0.2,0.8-0.3,1.1-0.6c0.4-0.4,0.6-0.1,0.8,0.2c0.3,0.4,0.1,0.5-0.2,0.7c-1.5,1-3.1,1.4-4.9,1c-1.6-0.4-2.7-1.4-3.2-2.9
		c-0.8-2.3-0.8-4.5,0.2-6.8c1-2.3,3.5-3.3,5.9-2.4c1.7,0.6,2.4,2,2.8,3.7c0.2,0.8,0.2,1.5,0.2,2.3c0,0.3-0.1,0.5-0.5,0.5
		C158.1,82.7,156.9,82.8,155.7,82.8z M155,81.7c1,0,2,0,3,0c0.3,0,0.5-0.1,0.5-0.4c0-0.8-0.1-1.6-0.4-2.3c-0.5-1.1-1.3-1.7-2.5-1.8
		c-1.3-0.1-2.3,0.3-3.1,1.4c-0.6,0.9-0.7,1.8-0.9,2.8c0,0.3,0.1,0.4,0.4,0.4C153,81.7,154,81.7,155,81.7z"/>
	<path fill="#ffffff" d="M106.2,82.8c-1.2,0-2.4,0-3.6,0c-0.3,0-0.5,0-0.4,0.4c0.1,0.4,0.1,0.7,0.2,1.1c0.6,2.6,2.8,3.8,5.3,2.8
		c0.4-0.2,0.8-0.3,1.1-0.6c0.4-0.4,0.6-0.1,0.8,0.2c0.4,0.4,0.1,0.5-0.2,0.7c-1.5,1-3.1,1.4-4.9,1c-1.6-0.4-2.7-1.4-3.2-2.9
		c-0.8-2.2-0.8-4.5,0.2-6.6c1-2.4,3.5-3.4,5.9-2.5c1.7,0.6,2.4,2,2.8,3.7c0.2,0.8,0.2,1.5,0.2,2.3c0,0.4-0.1,0.5-0.5,0.5
		C108.6,82.7,107.4,82.8,106.2,82.8z M105.5,81.7c1,0,2,0,3,0c0.4,0,0.5-0.1,0.5-0.5c0-0.8-0.1-1.5-0.4-2.3
		c-0.5-1.1-1.3-1.8-2.5-1.9c-1.3-0.1-2.4,0.3-3.1,1.5c-0.5,0.8-0.7,1.7-0.8,2.7c-0.1,0.4,0.1,0.5,0.5,0.5
		C103.6,81.7,104.5,81.7,105.5,81.7z"/>
	<path fill="#ffffff" d="M229.1,76.3c1.3-0.1,1.3-0.1,1.8,1.1c1,3,2,6.1,3,9.1c0.1,0.2,0,0.4,0.3,0.6c0.6-1.9,1.3-3.9,1.9-5.8
		c0.5-1.4,1-2.8,1.4-4.3c0.2-0.6,0.4-0.9,1-0.7c0.2,0,0.4,0,0.6,0c-0.1,0.4-0.2,0.7-0.4,1.1c-1.3,3.8-2.6,7.6-3.9,11.4
		c-0.7,2.1-2,3.7-4.3,4.2c-0.2,0-0.5,0.3-0.5-0.1c0-0.3-0.4-0.7,0.3-0.9c1.7-0.4,2.7-1.6,3.3-3.2c0.1-0.2,0.2-0.4-0.2-0.4
		c-0.2,0-0.2-0.2-0.3-0.3c-1.3-3.8-2.7-7.7-4-11.5C229.1,76.4,229.1,76.3,229.1,76.3z"/>
	<path fill="#ffffff" d="M81.2,80c0,1.7,0.1,3.1,0.7,4.4c1.3,2.9,4.6,3.8,7.2,1.9c0.6-0.4,0.7-0.1,1,0.2c0.4,0.5-0.1,0.6-0.3,0.8
		c-2.3,1.8-7.2,2-9.1-2.3c-1.4-3.1-1.4-6.3,0-9.3c1.9-4.3,6.8-4.2,9.1-2.4c0.2,0.1,0.6,0.3,0.2,0.6c-0.3,0.2-0.2,0.9-0.9,0.4
		c-2.8-2-6.2-0.9-7.3,2.4C81.3,77.8,81.2,79.1,81.2,80z"/>
	<path fill="#ffffff" d="M207.9,78.1c0.4-0.1,0.4-0.3,0.6-0.4c0.9-1,2-1.6,3.4-1.7c2.1,0,3.4,1.1,3.5,3.2c0.1,2.9,0,5.8,0,8.7
		c0,0.3-0.1,0.4-0.4,0.3c-0.2,0-0.3,0-0.5,0c-0.4,0.1-0.5-0.1-0.5-0.5c0-2.5,0-5,0-7.4c0-0.2,0-0.5,0-0.7c0-2.5-1.8-2.9-3.5-2.3
		c-1.1,0.4-1.8,1.2-2.5,2.1c-0.1,0.2-0.1,0.4-0.1,0.6c0,2.6,0,5.1,0,7.7c0,0.5-0.2,0.6-0.6,0.5c-0.3,0-0.8,0.2-0.8-0.5
		c0-3.7,0-7.3,0-11c0-0.3,0-0.6,0.5-0.5c0.3,0.1,0.8-0.2,0.8,0.5C207.8,77.2,207.9,77.6,207.9,78.1z"/>
	<path fill="#ffffff" d="M148.8,76.2c-1.4,3.9-2.7,7.8-4,11.7c-0.1,0.3-0.3,0.4-0.5,0.4c-1.3,0-1.3,0-1.7-1.1
		c-1.2-3.4-2.5-6.9-3.7-10.3c-0.1-0.2-0.1-0.3-0.2-0.5c1.4-0.1,1.4-0.1,1.9,1.2c1.1,3.1,2.1,6.2,3.2,9.4c0.2-0.2,0.2-0.4,0.3-0.6
		c1-3.1,2.1-6.2,3-9.3c0.2-0.6,0.4-0.9,1.1-0.8C148.3,76.3,148.5,76.2,148.8,76.2z"/>
	<path fill="#ffffff" d="M131.1,76.2c-0.2,1.1-0.2,1.1-1.2,1.1c-0.6,0-1.4-0.2-1.7,0.1c-0.4,0.4-0.1,1.2-0.1,1.8c0,2,0,3.9,0,5.9
		c0,2,1.2,2.8,3,2c0.6-0.3,0.7,0,1,0.4c0.1,0.2,0.1,0.3-0.1,0.5c-1.1,0.6-2.2,0.8-3.4,0.4c-1-0.3-1.5-1.1-1.7-2.1
		c-0.1-0.6-0.1-1.2-0.1-1.9c0-2.2,0-4.3,0-6.5c0-0.4-0.1-0.6-0.5-0.5c-0.3,0-0.6,0-0.9,0c-0.5,0.1-0.6-0.1-0.6-0.6
		c0-0.4,0.1-0.5,0.5-0.5c0.5,0,1.2,0.2,1.4-0.1c0.2-0.3,0.1-1,0.1-1.4c0-0.3,0-0.6,0-0.9c0-0.3,0.1-0.5,0.4-0.5
		c0.9-0.1,0.9-0.2,0.9,0.8c0,0.6,0,1.2,0,1.7c0,0.3,0.1,0.4,0.4,0.4C129.3,76.2,130.2,76.2,131.1,76.2z"/>
	<path fill="#ffffff" d="M219.2,82.5c0-1.5,0.2-2.8,0.8-3.9c1.4-2.6,4.9-3.4,7.3-1.6c0.2,0.1,0.5,0.3,0.2,0.6
		c-0.2,0.2-0.2,0.7-0.8,0.4c-2.7-1.6-5.2-0.6-5.9,2.5c-0.3,1.3-0.3,2.6,0,4c0.7,2.8,3.3,3.9,5.7,2.3c0.5-0.3,0.7-0.2,1,0.2
		c0.2,0.3,0.2,0.4-0.1,0.6c-2.4,1.8-6.4,1.4-7.7-2.1C219.3,84.4,219.2,83.4,219.2,82.5z"/>
	<path fill="#ffffff" d="M74.5,17.6c0.2,0.7-0.1,1.3-0.1,1.9c-0.3,1.8-0.7,3.5-1.7,5.1c-1.3,2.1-3.8,2.6-5.8,1.1
		c-0.2-0.1-0.4-0.3-0.1-0.5c2.9-2.1,5.2-4.7,7.4-7.4C74.3,17.8,74.4,17.7,74.5,17.6z"/>
	<path fill="#ffffff" d="M94.5,78.5c0.1-0.3,0.2-0.5,0.4-0.8c0.8-1.4,2.1-2,3.7-1.7c0.3,0.1,0.4,0.2,0.4,0.5c-0.1,0.6-0.2,0.9-1,0.7
		c-0.9-0.2-1.7,0.2-2.3,0.9c-0.7,1-1.2,2-1.2,3.3c0,2.1,0,4.2,0,6.2c0,0.6-0.4,0.5-0.7,0.5c-0.4,0-0.7,0.1-0.7-0.5c0-3.7,0-7.3,0-11
		c0-0.4,0.1-0.5,0.5-0.5c0.3,0,0.8-0.2,0.7,0.5c0,0.6,0,1.2,0,1.8C94.4,78.5,94.5,78.5,94.5,78.5z"/>
	<path fill="#ffffff" d="M134.6,82.2c0-1.8,0-3.7,0-5.5c0-0.4,0.1-0.5,0.5-0.5c0.9,0,0.9,0,0.9,0.9c0,3.5,0,7,0,10.6
		c0,0.6-0.3,0.6-0.7,0.6c-0.5,0-0.7,0-0.7-0.6C134.7,85.8,134.6,84,134.6,82.2z"/>
	<path fill="#ffffff" d="M136.4,71.9c0,0.6-0.4,1-1,1c-0.6,0-1-0.4-1-1c0-0.6,0.4-1,1-1C136,70.9,136.4,71.3,136.4,71.9z"/>
</g>
</svg>
